<?xml version="1.0" encoding="UTF-8" standalone="no"?>
<svg
   width="40"
   height="40"
   viewBox="0 0 40 40"
   fill="none"
   version="1.1"
   id="svg6"
   xmlns="http://www.w3.org/2000/svg"
   xmlns:svg="http://www.w3.org/2000/svg">
  <defs
     id="defs6" />
  <rect
     x="27.443464"
     y="-8.9899082"
     width="1.7146699"
     height="16.733801"
     transform="rotate(45.9772)"
     fill="#ffffff"
     id="rect1" />
  <path
     d="m 26,14 h 10.8 c 0.6628,0 1.2,0.5373 1.2,1.2 V 36.8 C 38,37.4628 37.4628,38 36.8,38 H 15.2 C 14.5373,38 14,37.4628 14,36.8 V 26"
     fill="#ffffff"
     id="path1" />
  <path
     d="m 26,14 h 10.8 c 0.6628,0 1.2,0.5373 1.2,1.2 V 36.8 C 38,37.4628 37.4628,38 36.8,38 H 15.2 C 14.5373,38 14,37.4628 14,36.8 V 26"
     stroke="#16161a"
     stroke-width="2"
     stroke-linecap="round"
     stroke-linejoin="round"
     id="path2" />
  <path
     d="M 26,14 V 3.2 C 26,2.53726 25.4628,2 24.8,2 H 3.2 C 2.53726,2 2,2.53726 2,3.2 V 24.8 C 2,25.4628 2.53726,26 3.2,26 H 14"
     fill="#ffffff"
     id="path3" />
  <path
     d="M 26,14 V 3.2 C 26,2.53726 25.4628,2 24.8,2 H 3.2 C 2.53726,2 2,2.53726 2,3.2 V 24.8 C 2,25.4628 2.53726,26 3.2,26 H 14"
     stroke="#16161a"
     stroke-width="2"
     stroke-linecap="round"
     stroke-linejoin="round"
     id="path4" />
  <path
     d="m 19.238076,16.210979 q 0,1.212242 -0.628908,2.17839 -0.619792,0.966147 -1.822919,1.513023 -1.203128,0.546876 -2.85287,0.546876 -1.977868,0 -3.263027,-0.747397 Q 9.7588921,19.16411 9.1846723,18.270879 8.6195671,17.368533 8.6195671,16.520876 q 0,-0.492189 0.3372402,-0.838544 0.3463548,-0.355469 0.8750016,-0.355469 0.4283861,0 0.7200531,0.273438 0.300782,0.273438 0.510418,0.811199 0.255209,0.638022 0.546876,1.066409 0.300782,0.428386 0.838543,0.710938 0.537761,0.273438 1.412763,0.273438 1.203127,0 1.950524,-0.55599 0.756512,-0.565105 0.756512,-1.403649 0,-0.665365 -0.410157,-1.075522 -0.401042,-0.419272 -1.048179,-0.638022 -0.638022,-0.218751 -1.713545,-0.464845 -1.440106,-0.33724 -2.415369,-0.783856 -0.966147,-0.45573 -1.5403669,-1.23047 -0.5651052,-0.783856 -0.5651052,-1.94141 0,-1.1028668 0.6015636,-1.9596392 0.6015635,-0.8567724 1.7408885,-1.3125024 1.139325,-0.4648446 2.679692,-0.4648446 1.230471,0 2.123702,0.3098964 0.902346,0.3007818 1.494795,0.8111994 0.592448,0.501303 0.865886,1.0572936 0.273438,0.5559906 0.273438,1.0846374 0,0.4830734 -0.346354,0.8750014 -0.33724,0.382813 -0.847658,0.382813 -0.464845,0 -0.710939,-0.227865 -0.236979,-0.236979 -0.519532,-0.765626 -0.364584,-0.7565118 -0.875002,-1.1757834 -0.510417,-0.4283862 -1.640628,-0.4283862 -1.048179,0 -1.695315,0.4648446 -0.638022,0.45573 -0.638022,1.102867 0,0.401042 0.21875,0.692709 0.218751,0.291667 0.601564,0.501303 0.382813,0.209636 0.774741,0.328126 0.391928,0.11849 1.294273,0.346355 1.13021,0.264323 2.04167,0.583334 0.920575,0.319011 1.558597,0.774741 0.647136,0.45573 1.002606,1.157554 0.364584,0.69271 0.364584,1.70443 z"
     fill="#16161a"
	 id="path-s"
     aria-label="S" />
  <path
     d="m 30.183276,22.252378 h -5.332041 v 3.417975 h 4.45704 q 0.619793,0 0.920574,0.282552 0.309897,0.273438 0.309897,0.738283 0,0.464845 -0.309897,0.738282 -0.309896,0.273438 -0.920574,0.273438 h -4.45704 v 4.402352 q 0,0.838543 -0.382813,1.2487 -0.373698,0.401043 -0.966147,0.401043 -0.601564,0 -0.984377,-0.410157 -0.373699,-0.410157 -0.373699,-1.239586 V 21.823992 q 0,-0.583335 0.173178,-0.947919 0.173177,-0.373698 0.537761,-0.537761 0.373699,-0.173178 0.947919,-0.173178 h 6.380219 q 0.647137,0 0.957033,0.291668 0.319011,0.282552 0.319011,0.747397 0,0.473959 -0.319011,0.765626 -0.309896,0.282553 -0.957033,0.282553 z"
     fill="#16161a"
	 id="path-f"
     aria-label="F" />
</svg>
